<?xml version="1.0" standalone="no"?>
<!DOCTYPE svg PUBLIC "-//W3C//DTD SVG 20010904//EN"
 "http://www.w3.org/TR/2001/REC-SVG-20010904/DTD/svg10.dtd">
<svg version="1.0" xmlns="http://www.w3.org/2000/svg"
 width="960.000000pt" height="960.000000pt" viewBox="0 0 960.000000 960.000000"
 preserveAspectRatio="xMidYMid meet">

<g transform="translate(0.000000,960.000000) scale(0.100000,-0.100000)"
fill="#000000" stroke="none">
<path d="M4973 8545 c-4 -12 -8 -13 -20 -3 -11 9 -16 9 -23 -1 -5 -9 -10 -10
-14 -2 -10 16 -39 14 -33 -3 4 -10 -10 -14 -61 -15 -42 -1 -71 -6 -77 -15 -5
-7 -16 -11 -24 -8 -10 3 -12 -1 -8 -17 3 -11 1 -19 -3 -16 -5 3 -11 1 -15 -5
-4 -7 -12 -7 -26 0 -13 8 -19 7 -19 0 0 -8 -6 -8 -19 0 -16 8 -22 7 -29 -6 -5
-9 -22 -17 -38 -17 -33 -2 -54 -18 -54 -41 0 -19 -46 -22 -53 -3 -3 7 -6 5 -6
-5 -1 -10 -5 -18 -11 -18 -5 0 -10 -12 -10 -26 0 -15 -4 -23 -11 -19 -27 17
-56 -6 -88 -70 -29 -59 -55 -160 -45 -176 2 -4 -7 -14 -21 -23 -23 -15 -25
-23 -25 -89 0 -103 27 -296 58 -413 l27 -102 22 34 c18 25 23 47 23 92 0 39 9
83 25 127 20 52 24 77 19 111 -3 24 -10 44 -14 44 -7 0 15 124 26 141 3 5 24
9 48 9 26 0 62 10 92 26 59 30 154 44 154 23 1 -9 4 -8 11 5 9 15 13 16 20 5
4 -8 5 -24 2 -38 -5 -20 -3 -22 16 -16 20 6 22 3 19 -22 -2 -18 1 -27 10 -25
12 2 16 -10 13 -35 -1 -7 4 -13 11 -13 9 0 9 -3 0 -12 -10 -10 -15 -10 -21 1
-6 9 -10 6 -13 -13 -4 -19 0 -27 13 -31 20 -7 26 -25 9 -25 -19 0 -10 -20 23
-50 38 -35 58 -37 75 -9 9 14 19 18 32 14 16 -5 20 -2 20 17 l0 23 18 -21 c9
-12 25 -24 35 -27 9 -4 22 -18 28 -31 10 -21 8 -29 -12 -54 -14 -15 -30 -27
-36 -25 -6 2 -22 -10 -37 -27 -42 -51 -111 -50 -128 2 -6 17 -130 23 -193 9
-33 -7 -60 -21 -73 -36 l-22 -25 23 0 c12 0 29 -4 36 -9 12 -8 8 -11 -15 -16
-53 -12 -179 -58 -195 -72 -9 -8 -15 -23 -12 -33 3 -11 -4 -28 -16 -41 -14
-15 -18 -26 -11 -33 13 -13 13 -46 0 -46 -6 0 -14 10 -19 22 -6 18 -9 19 -14
5 -8 -20 29 -58 49 -50 17 6 26 36 23 71 -6 55 17 32 53 -53 57 -133 71 -144
196 -156 130 -12 184 23 247 159 19 39 38 72 44 72 28 0 41 -13 35 -36 -4 -14
-2 -24 4 -24 6 0 13 -13 17 -30 4 -16 11 -30 16 -30 11 0 11 -2 0 37 -6 21 -6
35 0 39 11 7 108 -94 109 -112 0 -7 11 -19 25 -28 32 -21 34 -74 5 -101 -19
-18 -20 -17 -20 3 0 17 -6 22 -28 22 -32 0 -52 -16 -52 -42 0 -23 -36 -41 -69
-35 -22 5 -27 2 -27 -14 0 -10 5 -19 11 -19 6 0 6 -3 -1 -8 -13 -8 -34 -46
-34 -62 0 -7 21 -9 63 -6 61 5 61 5 33 -10 -16 -9 -44 -16 -63 -16 -18 0 -56
-11 -83 -24 -28 -13 -56 -24 -63 -24 -14 0 -49 42 -60 73 -8 20 -27 14 -27 -9
0 -8 -4 -14 -10 -14 -13 0 -13 -81 0 -114 13 -35 57 -36 66 -2 6 25 22 31 127
43 37 4 47 2 45 -9 -5 -21 96 -23 140 -2 51 24 112 31 112 12 0 -19 39 -54 68
-61 15 -3 22 -1 22 9 0 8 6 17 14 20 10 4 12 26 10 97 -2 51 -7 108 -10 127
-4 19 -6 41 -5 48 1 6 -3 12 -9 12 -7 0 -9 8 -5 20 3 11 2 20 -3 20 -5 0 -9
13 -8 30 1 16 5 30 9 30 5 0 6 4 3 9 -3 5 21 19 53 31 90 33 107 59 131 200 6
36 18 75 26 87 8 13 12 33 8 47 -5 20 -15 25 -74 35 -38 6 -85 11 -104 11 -27
0 -34 3 -30 15 4 8 12 15 20 15 24 0 3 28 -37 49 -22 12 -55 22 -74 24 -27 1
-37 8 -46 29 -6 15 -16 29 -23 31 -18 7 -20 67 -1 67 8 0 15 4 15 10 0 5 12
16 28 24 19 11 22 15 10 16 -11 0 -18 8 -18 18 0 10 -3 22 -7 26 -14 13 -12
87 2 92 8 3 11 12 8 20 -3 8 -1 14 5 14 6 0 13 -6 15 -12 4 -8 6 -7 6 3 1 9 7
19 15 22 16 6 113 3 119 -3 6 -8 68 -173 84 -223 14 -46 16 -48 33 -32 10 9
24 14 29 10 6 -3 11 0 11 9 0 22 -11 46 -20 41 -4 -2 -5 6 -3 19 3 13 0 27 -6
30 -6 4 -11 28 -11 54 -1 46 -1 47 -16 22 l-15 -25 7 25 c4 14 13 34 22 45 11
15 13 16 9 3 -4 -10 -1 -20 5 -24 6 -4 8 -23 5 -45 -4 -31 -2 -37 11 -32 8 4
13 2 9 -3 -3 -5 0 -40 7 -77 7 -37 10 -70 7 -74 -3 -3 -1 -3 6 1 8 4 10 28 8
74 -2 37 -5 75 -5 85 -1 11 5 24 13 30 10 8 16 39 20 92 4 73 2 83 -21 120
l-26 40 -7 -30 -6 -30 -11 28 c-7 16 -12 33 -12 38 0 6 -5 7 -10 4 -6 -4 -13
7 -16 25 -4 17 -10 32 -14 35 -4 2 -5 -7 -2 -20 6 -36 -15 -31 -23 6 -4 17 -9
28 -13 25 -5 -5 -22 18 -38 54 -15 31 -26 40 -39 30 -8 -7 -18 -1 -33 20 -14
18 -28 27 -37 24 -8 -4 -15 -2 -15 3 0 5 -7 10 -15 10 -8 0 -12 -4 -9 -9 12
-18 -17 -6 -41 18 -14 14 -29 23 -34 19 -5 -3 -11 0 -13 6 -2 6 -26 13 -53 15
-28 2 -56 6 -63 9 -7 3 -15 -2 -19 -10z m-133 -535 c0 -5 -5 -10 -11 -10 -5 0
-7 5 -4 10 3 6 8 10 11 10 2 0 4 -4 4 -10z m601 -410 c14 -21 4 -188 -14 -233
-21 -49 -78 -77 -172 -84 -44 -4 -75 -2 -78 4 -4 7 15 10 52 9 47 -1 57 2 53
13 -4 10 -1 13 9 9 8 -3 20 1 27 8 10 12 10 14 -2 14 -13 0 -13 5 0 43 15 43
11 104 -6 78 -4 -8 -15 -11 -25 -7 -15 5 -15 7 -1 22 10 9 24 13 38 9 19 -5
17 -1 -11 24 -40 35 -36 51 6 25 27 -17 27 -16 -4 15 -21 20 -30 37 -26 48 4
9 2 14 -3 11 -5 -3 -18 -2 -29 3 -13 6 16 8 78 6 74 -1 100 -6 108 -17z m-794
-75 c-7 -14 -17 -25 -23 -25 -6 0 -18 -7 -25 -16 -12 -15 -11 -16 11 -9 14 4
31 10 38 12 6 3 12 3 12 0 0 -8 -70 -47 -85 -47 -15 0 -29 -30 -18 -41 4 -4
18 -10 30 -14 18 -5 22 -3 17 9 -5 13 -1 13 26 3 27 -10 29 -13 11 -15 l-21
-3 21 -22 c12 -12 26 -35 31 -50 9 -26 13 -27 52 -22 22 4 51 13 63 20 16 11
23 12 27 2 3 -7 7 -3 11 11 10 30 23 28 17 -3 -14 -73 -208 -135 -292 -92 -31
15 -64 64 -84 123 -15 45 -15 46 4 41 26 -7 26 9 -1 23 -17 9 -20 19 -17 58
l3 47 70 17 c39 9 84 17 102 17 30 1 31 0 20 -24z m380 -42 c-3 -10 -5 -4 -5
12 0 17 2 24 5 18 2 -7 2 -21 0 -30z m252 28 c11 -7 9 -11 -8 -20 -18 -10 -21
-9 -21 9 0 22 7 25 29 11z m-609 -92 c0 -14 -26 -10 -39 5 -9 11 -9 15 1 19
14 5 38 -10 38 -24z m414 -69 c6 -9 1 -5 -11 8 -13 13 -23 28 -23 35 0 7 6 3
12 -8 6 -11 16 -27 22 -35z m16 -244 c0 -8 -4 -17 -9 -21 -12 -7 -24 12 -16
25 9 15 25 12 25 -4z m107 -62 c-3 -3 -12 -4 -19 -1 -8 3 -5 6 6 6 11 1 17 -2
13 -5z m-193 -23 c3 -5 -1 -11 -9 -15 -9 -3 -15 0 -15 9 0 16 16 20 24 6z
m170 -66 c21 -16 15 -18 -21 -9 -13 4 -23 10 -23 15 0 13 23 10 44 -6z"/>
<path d="M5524 8006 c-4 -9 -1 -35 5 -59 7 -23 14 -51 15 -62 5 -32 7 -32 16
-2 9 30 4 57 -11 57 -5 0 -4 12 1 26 8 19 6 29 -5 40 -13 14 -16 14 -21 0z"/>
<path d="M5572 7860 c0 -14 2 -19 5 -12 2 6 2 18 0 25 -3 6 -5 1 -5 -13z"/>
<path d="M5591 7523 c-21 -75 -7 -101 29 -56 12 16 17 29 11 31 -6 2 -11 17
-11 33 0 41 -17 36 -29 -8z"/>
<path d="M5675 7415 c1 -26 6 -50 11 -55 11 -11 5 81 -5 93 -4 4 -7 -13 -6
-38z"/>
<path d="M5593 7353 c-20 -7 -17 -73 3 -73 14 0 14 -1 0 -16 -9 -8 -16 -19
-16 -24 0 -5 -3 -15 -6 -24 -3 -9 -1 -16 5 -16 6 0 11 6 11 13 0 9 10 12 30 9
26 -4 32 0 44 29 10 24 11 40 4 61 -10 27 -28 39 -28 18 0 -6 -8 -5 -19 2 -11
7 -17 16 -15 20 6 9 5 9 -13 1z"/>
<path d="M4370 7192 c0 -11 -9 -27 -20 -37 -25 -23 -25 -47 -1 -69 33 -30 48
-11 50 60 1 51 -2 64 -14 64 -8 0 -15 -8 -15 -18z"/>
<path d="M5645 7169 c-4 -6 -5 -12 -2 -15 2 -3 7 2 10 11 7 17 1 20 -8 4z"/>
<path d="M4852 7116 c-9 -21 -8 -25 6 -28 9 -3 26 -1 37 3 11 4 29 10 40 14
20 6 20 7 1 21 -31 23 -71 18 -84 -10z"/>
<path d="M4983 6813 c-25 -5 -32 -23 -9 -23 11 0 13 -7 6 -30 -7 -25 -6 -30 9
-30 49 0 42 -40 -17 -99 -18 -18 -32 -39 -32 -47 0 -8 -7 -14 -15 -14 -8 0
-15 -5 -15 -12 0 -9 -3 -9 -12 0 -7 7 -28 12 -48 12 -20 0 -41 -5 -48 -12 -9
-9 -12 -9 -12 0 0 7 -12 12 -26 12 -19 0 -25 -4 -20 -15 10 -26 -24 -17 -74
20 -26 19 -51 35 -55 35 -8 0 24 -45 55 -78 11 -12 18 -27 14 -34 -5 -8 -2 -9
9 -5 10 3 17 3 17 -2 0 -5 8 -11 18 -14 9 -4 42 -16 72 -28 48 -18 116 -36
158 -41 6 -1 12 -5 12 -9 0 -5 17 -13 38 -20 27 -8 42 -20 52 -42 12 -27 11
-31 -6 -44 -10 -8 -31 -17 -46 -20 -16 -3 -28 -12 -28 -19 0 -8 -4 -14 -10
-14 -5 0 -10 4 -10 10 0 12 -69 42 -80 35 -4 -3 -10 2 -14 10 -3 8 -12 15 -21
15 -8 0 -15 7 -15 15 0 14 -18 20 -49 16 -8 -2 -10 2 -5 10 5 9 2 10 -9 6 -11
-4 -14 -2 -10 9 3 7 -1 14 -8 14 -7 0 -9 3 -6 6 8 8 -24 64 -35 64 -4 0 -8 6
-8 14 0 8 -10 18 -21 21 -35 11 -99 85 -127 145 l-26 55 -8 -60 c-12 -101 -12
-153 2 -170 7 -8 9 -16 4 -16 -5 -1 -23 -3 -41 -5 l-32 -4 5 50 c7 68 -20 70
-32 3 -7 -38 -25 -58 -35 -41 -6 9 -9 9 -9 1 0 -6 5 -15 10 -18 6 -3 10 -11
10 -16 0 -6 -5 -7 -11 -3 -6 3 -16 0 -21 -7 -11 -16 -6 43 6 76 7 17 5 17 -13
-4 -12 -13 -21 -29 -21 -37 0 -8 -3 -13 -7 -13 -5 1 -15 1 -23 0 -12 -1 -12
-3 -2 -10 11 -7 11 -9 -2 -14 -8 -3 -18 -2 -21 4 -4 5 -11 7 -16 3 -6 -4 -6
-11 2 -20 9 -11 6 -18 -12 -34 -13 -10 -32 -19 -41 -20 -10 0 -18 -5 -18 -11
0 -6 -8 -8 -18 -5 -10 4 -40 -1 -68 -9 -27 -9 -78 -22 -114 -30 -36 -8 -108
-26 -160 -40 -52 -14 -115 -30 -140 -35 -41 -7 -94 -24 -144 -45 -14 -6 -17
-5 -12 4 4 6 -18 -2 -49 -19 -32 -17 -60 -29 -63 -26 -3 3 -13 -3 -22 -14 -17
-20 -18 -19 -31 25 -14 48 -25 56 -36 28 -4 -10 -16 -26 -28 -35 -21 -18 -3
-20 25 -3 13 8 13 7 1 -9 -13 -15 -13 -19 0 -27 10 -6 5 -9 -18 -9 -18 0 -33
-5 -33 -11 0 -6 -6 -9 -12 -6 -20 7 -62 -28 -93 -77 -16 -25 -33 -46 -37 -46
-4 0 -8 -7 -8 -16 0 -9 -8 -24 -18 -33 -48 -44 -97 -146 -90 -186 3 -14 1 -22
-5 -18 -17 10 -27 -21 -27 -89 0 -70 1 -68 -57 -130 -15 -17 -15 -18 0 -18 11
0 17 -8 17 -25 0 -21 -4 -24 -34 -21 -18 2 -38 6 -43 9 -12 8 -36 -17 -26 -26
3 -4 0 -13 -7 -22 -7 -9 -10 -18 -6 -22 3 -4 -8 -13 -26 -20 -22 -9 -34 -10
-36 -3 -8 23 -30 7 -46 -34 -9 -24 -16 -48 -14 -52 3 -13 -43 -114 -52 -114
-5 0 -11 -18 -15 -40 -4 -23 -12 -40 -20 -40 -14 0 -26 -58 -13 -66 14 -9 -1
-24 -17 -17 -43 16 -69 -87 -44 -167 6 -19 13 -59 15 -88 2 -29 8 -69 14 -90
16 -59 13 -75 -11 -69 -17 5 -20 2 -16 -15 3 -12 0 -36 -8 -55 -14 -32 -13
-34 16 -55 16 -12 27 -28 24 -35 -2 -8 2 -16 10 -19 24 -10 19 -37 -5 -29 -21
7 -21 6 -5 -32 9 -21 20 -42 26 -47 5 -6 9 -22 9 -38 0 -20 4 -26 15 -22 11 5
13 -1 8 -30 -4 -25 -2 -36 7 -36 8 0 11 9 8 25 -7 36 9 31 26 -9 8 -18 19 -37
25 -40 18 -12 12 -36 -9 -36 -11 0 -20 3 -20 8 0 4 -11 12 -25 19 -19 8 -25 8
-25 0 0 -7 -5 -4 -11 6 -17 28 -29 9 -23 -36 7 -53 42 -123 68 -136 18 -9 17
-10 -9 -5 -24 4 -27 3 -13 -6 9 -6 15 -16 12 -23 -2 -7 6 -19 19 -26 12 -7 29
-21 35 -32 12 -19 11 -19 -10 -8 -13 6 -27 18 -31 25 -4 8 -17 18 -27 24 -17
9 -20 7 -20 -12 0 -23 38 -72 61 -80 7 -2 9 -10 5 -16 -5 -9 -12 -9 -28 -1
-19 10 -20 9 -13 -33 4 -23 16 -52 26 -64 20 -21 26 -64 9 -64 -5 0 -10 5 -10
11 0 5 -4 7 -10 4 -14 -9 -12 -68 3 -86 17 -21 87 -66 116 -74 21 -6 22 -9 8
-17 -12 -6 -28 -4 -53 8 -37 18 -51 13 -54 -21 -4 -37 0 -45 20 -45 11 0 20
-7 20 -15 0 -8 -9 -15 -19 -15 -18 0 -20 -6 -17 -60 2 -48 8 -64 26 -80 26
-22 35 -26 24 -9 -4 7 -1 10 7 7 8 -3 13 -15 12 -27 -2 -15 3 -21 18 -21 12 0
19 -5 16 -12 -2 -7 -14 -13 -26 -12 -18 0 -21 -5 -21 -38 0 -33 7 -46 49 -88
43 -44 47 -50 33 -64 -14 -14 -14 -20 5 -63 12 -26 25 -64 30 -83 8 -31 13
-35 46 -38 23 -2 90 14 183 43 114 36 153 53 179 78 18 18 52 50 74 71 23 22
44 37 47 33 3 -3 1 -60 -6 -126 -7 -66 -9 -124 -5 -130 3 -6 1 -11 -5 -11 -5
0 -20 -20 -32 -44 l-21 -44 23 -69 c24 -70 26 -89 35 -356 6 -148 11 -179 44
-237 25 -46 30 -61 25 -75 -4 -10 0 -15 12 -15 11 0 29 -16 43 -38 13 -20 32
-49 41 -63 18 -25 17 -79 -1 -79 -18 0 -8 -43 19 -79 15 -20 32 -45 38 -55 6
-11 15 -21 21 -23 14 -5 25 40 11 48 -7 4 -6 8 3 12 10 4 9 6 -3 6 -10 1 -18
-3 -18 -9 0 -5 -4 -10 -9 -10 -5 0 -8 18 -7 40 2 22 -1 40 -5 40 -5 0 -9 -7
-9 -15 0 -24 -17 -17 -22 9 -4 20 -1 24 16 24 24 -2 66 -35 66 -54 0 -6 7 -15
16 -18 8 -3 12 -11 8 -17 -3 -6 -1 -14 5 -18 7 -5 0 -18 -21 -40 l-31 -32 21
-21 21 -22 10 27 c11 27 31 37 31 15 0 -9 3 -9 12 0 17 17 28 15 28 -4 0 -13
3 -14 14 -4 13 10 15 7 13 -17 -3 -30 -37 -48 -37 -19 0 19 -11 21 -28 4 -14
-14 -16 -68 -3 -68 6 0 17 10 25 22 21 30 20 14 0 -18 -20 -29 -6 -55 16 -29
7 8 20 15 30 15 22 0 83 93 100 153 13 49 30 63 30 25 0 -34 82 -189 110 -207
14 -8 30 -23 37 -31 6 -8 15 -12 18 -8 4 4 23 1 41 -7 32 -13 34 -13 34 6 0
10 3 18 8 18 22 -4 23 4 2 26 l-23 25 36 0 c19 0 42 -7 50 -14 10 -11 23 -13
43 -7 31 9 28 12 -36 30 -32 9 -32 10 -6 8 41 -3 46 22 6 29 -17 4 -28 10 -23
15 10 9 113 -11 113 -22 0 -5 -7 -9 -15 -9 -24 0 -17 -19 10 -26 14 -3 25 -10
25 -16 0 -5 -9 -6 -20 -3 -14 4 -20 2 -20 -9 0 -19 41 -31 75 -22 14 4 25 2
25 -4 0 -5 -3 -10 -7 -10 -5 0 -14 -4 -22 -9 -11 -7 -9 -14 11 -34 19 -19 28
-23 37 -14 8 8 11 4 11 -17 0 -25 3 -27 25 -22 19 5 25 2 25 -9 0 -9 -4 -14
-8 -11 -5 3 -30 1 -58 -3 l-49 -8 35 -9 c36 -11 52 -40 30 -54 -10 -6 -10 -15
-2 -39 7 -20 7 -33 1 -37 -6 -4 -4 -13 7 -25 16 -18 16 -19 -6 -19 -19 0 -20
-2 -10 -15 7 -9 9 -22 4 -32 -4 -10 -8 -22 -8 -26 -1 -4 -8 -12 -16 -17 -11
-7 -4 -10 24 -10 37 0 39 -1 20 -15 -18 -14 -18 -14 9 -15 15 0 27 -5 27 -12
0 -13 76 -88 90 -88 6 0 10 -7 10 -15 0 -8 -6 -15 -14 -15 -25 0 -13 -54 13
-58 25 -4 29 -24 4 -21 -10 1 -27 1 -38 0 -20 -2 -20 -2 -1 -16 11 -8 29 -15
40 -16 18 0 18 -1 4 -7 -13 -5 -15 -11 -8 -22 5 -8 10 -26 10 -39 0 -17 -4
-22 -16 -17 -13 5 -14 1 -9 -23 4 -17 1 -38 -6 -49 -10 -16 -10 -24 -1 -35 9
-10 9 -18 -2 -32 -12 -17 -12 -21 3 -32 15 -12 15 -13 -1 -7 -11 4 -18 1 -19
-7 0 -8 -2 -24 -3 -37 -2 -12 2 -22 8 -22 5 0 0 -9 -13 -21 -25 -23 -41 -19
-21 6 10 12 10 15 -3 15 -21 0 -48 -55 -34 -69 8 -8 3 -11 -17 -11 -17 0 -25
4 -21 11 4 6 -2 13 -14 16 -23 6 -29 23 -8 23 8 0 8 3 -2 9 -10 7 -19 5 -26
-6 -16 -21 -67 -10 -59 12 5 11 -2 15 -25 15 -29 0 -31 -2 -31 -38 0 -21 -5
-43 -11 -49 -16 -16 -24 -97 -10 -88 14 8 14 -16 1 -49 -8 -21 -7 -24 7 -19
11 4 14 3 9 -6 -4 -6 -5 -25 -1 -41 l7 -30 383 0 384 0 10 38 c5 20 15 82 21
137 7 55 16 123 21 150 6 28 14 122 19 210 10 171 28 297 57 385 l18 55 6
-126 c3 -69 13 -159 22 -200 9 -41 21 -128 27 -194 6 -66 15 -149 20 -185 5
-36 14 -111 21 -167 l11 -103 214 0 c118 0 214 4 214 8 0 5 -9 18 -20 30 -11
12 -20 26 -20 31 0 6 -8 14 -17 20 -10 5 -14 13 -10 17 4 4 14 -2 23 -14 9
-13 22 -28 31 -35 8 -7 24 -22 35 -34 12 -13 30 -23 40 -23 13 0 5 13 -30 48
-62 64 -83 89 -112 137 -13 22 -27 42 -30 45 -8 7 -40 58 -40 65 0 3 5 5 10 5
6 0 10 -5 10 -12 0 -6 7 -18 15 -27 62 -67 75 -83 75 -90 0 -4 11 -18 24 -30
l23 -22 5 25 c7 34 -14 112 -35 133 -16 16 -17 16 -17 -12 0 -15 -3 -26 -6
-22 -4 3 -3 22 0 42 5 26 11 35 21 31 9 -3 12 0 9 8 -3 7 2 16 10 19 28 11 8
77 -23 77 -15 0 -14 27 1 32 6 2 12 11 14 20 1 10 -3 15 -11 11 -9 -3 -16 7
-21 32 -3 20 -4 39 0 42 3 4 6 -6 6 -20 0 -32 10 -34 33 -9 21 23 21 32 3 32
-15 0 -30 29 -21 39 3 3 15 0 25 -7 17 -11 20 -10 20 8 0 13 -10 24 -26 30
-20 8 -25 15 -21 31 3 12 2 32 -3 45 -8 21 -7 24 15 24 14 0 25 -4 25 -10 0
-5 11 -10 24 -10 22 0 22 2 12 35 -11 37 -28 50 -19 15 4 -13 0 -20 -10 -20
-20 0 -40 27 -33 45 4 10 -1 15 -15 15 -12 0 -19 5 -16 13 2 6 10 11 17 9 29
-7 40 6 28 33 -10 22 -13 24 -21 10 -7 -13 -12 -14 -23 -4 -12 10 -12 13 2 24
14 10 12 11 -15 7 -31 -4 -32 -3 -20 16 10 16 10 24 1 35 -10 12 -5 13 37 9
30 -2 51 0 55 7 10 15 22 14 40 -4 9 -10 17 -11 21 -5 3 6 -2 13 -12 17 -41
16 -78 48 -75 66 2 11 10 16 17 13 8 -2 19 2 26 11 7 8 23 19 36 24 18 7 22
15 19 39 -2 16 -8 36 -15 43 -6 8 -8 17 -4 20 11 11 53 8 53 -4 0 -6 7 -8 16
-5 10 4 22 -1 30 -11 10 -15 10 -21 -4 -37 -9 -11 -11 -16 -4 -12 9 5 12 -3
12 -31 0 -21 4 -43 8 -48 6 -9 58 -12 87 -5 6 1 13 2 18 1 4 0 7 3 7 9 0 5 7
7 15 3 9 -3 22 2 30 13 22 29 18 37 -15 30 -25 -4 -30 -2 -30 13 0 17 26 31
65 36 6 1 29 7 53 14 23 6 57 9 76 6 20 -4 36 -2 40 4 4 6 17 11 29 11 22 -1
22 -1 3 -15 -18 -14 -15 -20 8 -16 4 1 14 -3 21 -9 10 -8 21 -7 44 4 31 17 49
36 33 36 -6 0 -8 23 -5 56 4 45 3 55 -7 49 -9 -5 -11 -4 -6 4 4 6 2 18 -4 26
-9 11 -7 17 9 27 12 7 21 19 21 27 0 11 -3 11 -15 1 -9 -7 -18 -10 -22 -6 -3
3 -1 6 5 6 7 0 12 15 13 33 1 30 1 31 9 7 6 -18 8 -9 7 32 -2 50 -5 58 -22 58
-18 0 -18 1 3 16 12 8 22 21 22 29 0 7 8 21 17 31 25 24 67 80 113 148 42 61
51 103 25 112 -8 4 -15 10 -15 16 0 5 4 6 10 3 5 -3 7 0 4 8 -3 8 -1 18 4 21
12 7 24 -21 16 -37 -3 -7 2 -3 10 7 20 25 20 46 0 46 -9 0 -14 6 -11 13 2 6 9
11 14 10 5 -1 7 12 5 28 -3 17 0 40 6 52 11 25 32 132 32 165 0 13 7 33 16 47
l15 24 34 -23 c18 -13 41 -31 50 -40 28 -27 62 -20 81 17 9 17 22 39 29 47 22
26 65 108 65 124 0 9 4 16 9 16 22 0 20 -22 -4 -57 -29 -43 -32 -68 -9 -77 51
-20 95 28 102 111 3 38 8 53 17 49 16 -6 26 27 19 63 -4 21 1 30 30 49 20 12
40 22 46 22 5 0 10 4 10 10 0 5 26 10 57 12 53 3 59 6 72 32 7 16 13 41 13 55
0 14 3 31 7 36 4 6 13 37 20 70 6 33 27 90 46 127 35 68 43 94 25 83 -20 -12
-9 8 26 48 31 36 35 47 31 80 -4 27 -1 37 9 37 7 0 18 19 24 43 6 23 20 69 31
101 21 66 25 131 8 141 -5 4 -19 -1 -30 -11 -22 -20 -25 -6 -4 22 8 10 15 26
15 34 0 8 7 28 16 45 8 16 18 49 21 73 3 24 13 50 21 58 9 9 12 25 9 42 -5 26
13 138 26 160 4 5 1 12 -5 15 -10 3 -10 7 0 19 32 40 37 118 6 118 -8 0 -14 6
-14 14 0 19 20 32 21 14 1 -7 5 5 10 26 12 49 5 56 -21 25 l-21 -24 5 38 c4
32 2 38 -12 35 -9 -3 -16 -9 -15 -16 2 -7 -4 -9 -14 -5 -11 4 -14 3 -9 -5 4
-7 2 -12 -3 -12 -20 0 -12 93 9 120 14 18 20 21 21 10 3 -27 5 -35 13 -57 8
-25 26 -31 27 -10 0 6 2 21 4 32 2 11 -6 30 -17 43 -21 21 -21 23 -5 39 16 16
17 16 17 0 0 -9 5 -17 10 -17 6 0 10 13 10 30 0 22 -4 28 -15 24 -11 -4 -19 3
-26 25 -6 17 -15 31 -20 31 -5 0 -9 5 -9 11 0 8 5 7 15 -1 22 -18 31 -4 12 18
-23 25 -21 35 3 29 16 -4 18 -2 12 11 -5 10 -5 67 0 127 11 144 10 307 -2 339
-11 31 -30 34 -30 5 0 -12 -4 -17 -11 -14 -6 4 -8 10 -5 13 3 3 -1 13 -10 23
-10 11 -12 19 -5 24 16 9 13 32 -4 32 -8 0 -15 -5 -15 -11 0 -6 -3 -7 -10 0
-5 5 -14 48 -19 95 -9 81 -36 158 -54 159 -5 0 -5 -24 -1 -52 12 -78 11 -113
-3 -111 -6 1 0 -19 14 -45 l25 -47 -26 28 c-32 34 -40 34 -33 -1 5 -23 2 -28
-13 -28 -11 0 -22 6 -24 13 -3 7 -2 13 3 13 12 0 20 36 14 60 -7 25 -23 27
-21 3 1 -10 0 -27 0 -37 -2 -18 -3 -18 -22 -1 -12 11 -20 31 -20 52 0 18 -4
33 -10 33 -6 0 -8 33 -6 82 3 80 -5 108 -32 108 -5 0 -17 18 -27 40 -20 45
-32 50 -38 18 -4 -20 -4 -20 -6 4 0 15 3 29 8 33 14 8 24 107 16 164 -4 29
-21 73 -40 105 -18 30 -31 57 -29 59 3 2 -2 10 -11 17 -8 7 -15 19 -15 27 0 9
-6 13 -15 9 -11 -4 -15 1 -15 17 0 12 -7 31 -15 41 -13 17 -15 18 -15 3 0 -37
-18 -14 -25 31 -4 26 -15 61 -25 77 -10 17 -23 47 -30 67 -6 21 -15 40 -20 43
-9 6 -3 -18 23 -95 9 -25 16 -58 15 -75 -1 -36 41 -112 52 -95 4 7 11 -14 15
-45 4 -37 3 -61 -4 -68 -8 -8 -11 -6 -11 8 -1 11 -7 31 -15 45 -14 23 -14 21
-9 -32 7 -61 0 -108 -16 -108 -6 0 -10 15 -10 33 0 19 -2 36 -5 39 -3 3 -7 49
-9 104 -9 193 -79 396 -166 479 -24 23 -33 27 -39 16 -5 -7 -14 -10 -20 -7
-17 11 -13 -26 5 -52 8 -12 12 -27 8 -34 -4 -6 -3 -8 3 -5 9 6 38 -91 30 -100
-2 -2 -15 18 -29 44 -14 27 -35 67 -48 91 -24 46 -41 56 -34 20 3 -15 0 -12
-10 9 -12 27 -42 53 -60 53 -3 0 5 -28 18 -62 30 -80 39 -118 28 -118 -5 0
-16 26 -26 58 -26 81 -65 164 -75 157 -5 -2 -14 2 -21 10 -7 8 -21 15 -32 15
-10 0 -17 4 -14 9 3 4 -6 6 -20 3 -14 -2 -32 2 -42 11 -21 19 -78 34 -162 43
-89 9 -191 31 -203 43 -5 5 -31 7 -56 4 -36 -4 -50 -1 -60 11 -7 9 -22 16 -32
16 -10 0 -20 4 -23 9 -3 4 -25 4 -50 -2 -49 -11 -76 -5 -76 17 0 9 7 12 20 9
11 -3 20 0 20 6 0 6 -4 11 -9 11 -5 0 -17 7 -26 17 -13 12 -19 13 -25 4 -5 -9
-9 -5 -14 13 -14 56 -23 21 -20 -81 l3 -108 -9 83 c-5 46 -13 97 -19 115 -5
18 -13 51 -16 74 -4 23 -13 47 -21 54 -9 7 -22 26 -31 43 -20 39 -74 106 -85
106 -4 0 -8 -16 -8 -35 0 -57 -24 -90 -90 -127 -33 -18 -60 -36 -60 -40 0 -4
-17 -16 -38 -27 -34 -18 -44 -18 -102 -7 -76 14 -114 32 -106 51 2 7 -2 16
-10 19 -16 6 -20 56 -4 56 10 0 50 36 50 45 0 2 -13 2 -29 -1 -20 -4 -30 -2
-34 10 -8 21 -43 20 -56 -1 -6 -10 -10 -13 -11 -8 0 15 13 30 35 43 l20 11
-20 1 c-11 0 -29 2 -40 4 -11 2 -30 2 -42 -1z m120 -90 c-7 -2 -19 -2 -25 0
-7 3 -2 5 12 5 14 0 19 -2 13 -5z m-28 -23 c-3 -5 -11 -10 -16 -10 -6 0 -7 5
-4 10 3 6 11 10 16 10 6 0 7 -4 4 -10z m-560 -310 c19 -7 18 -9 -8 -19 -38
-15 -57 -14 -57 2 0 27 25 34 65 17z m1532 -36 c-3 -3 -12 -4 -19 -1 -8 3 -5
6 6 6 11 1 17 -2 13 -5z m-1879 -115 c-6 -16 -12 -29 -13 -27 -6 6 8 58 16 58
4 0 3 -14 -3 -31z m-165 -1 c-19 -6 -33 -18 -33 -27 0 -14 -2 -14 -10 -1 -5 8
-10 18 -10 22 0 8 27 16 60 16 22 0 21 -1 -7 -10z m-73 -18 c0 -5 -4 -10 -9
-10 -5 0 -13 -9 -16 -20 -7 -23 -25 -27 -25 -5 0 18 -26 20 -33 3 -4 -9 -6 -8
-6 2 -1 9 13 20 32 27 44 14 57 15 57 3z m-122 -36 c-16 -8 -28 -18 -28 -22 0
-5 -7 -17 -15 -28 -14 -18 -14 -17 -4 11 l10 30 -25 -24 c-24 -23 -26 -23 -26
-5 -1 15 -4 14 -16 -8 -18 -35 -26 -36 -18 -3 10 40 -21 21 -39 -23 -9 -20
-24 -44 -34 -52 -10 -8 -26 -21 -36 -29 -25 -20 -21 1 6 33 13 15 35 45 48 66
21 34 31 40 89 53 36 8 76 15 90 15 l25 1 -27 -15z m33 -45 c-5 -13 -10 -19
-10 -12 -1 15 10 45 15 40 3 -2 0 -15 -5 -28z m-225 6 c-8 -8 -18 -15 -23 -15
-9 -1 -60 -78 -87 -135 -11 -22 -25 -43 -30 -47 -23 -16 -25 -7 -7 26 11 19
17 37 14 40 -4 3 -1 6 5 6 7 0 12 9 12 20 0 11 4 20 8 20 5 0 9 6 9 13 0 6 4
21 8 32 13 39 -86 -81 -118 -142 -17 -35 -36 -63 -41 -63 -5 0 -3 7 4 15 11
13 10 14 -3 10 -13 -6 -14 -1 -6 37 12 52 34 88 54 88 8 0 15 5 15 10 0 6 10
15 23 21 12 5 37 21 56 34 18 14 37 23 41 20 4 -3 21 2 36 10 37 19 50 19 30
0z m3244 -54 c0 -9 14 -52 30 -96 24 -64 30 -95 29 -155 -1 -86 -15 -144 -16
-66 -1 27 -6 53 -12 59 -6 6 -11 29 -12 52 -1 72 -15 83 -16 12 -1 -36 -5 -73
-10 -81 -5 -9 -8 22 -8 77 0 69 -5 103 -19 134 -31 69 -12 72 22 3 18 -35 32
-58 32 -51 0 6 -8 28 -19 49 -10 20 -21 55 -24 77 -6 37 -5 38 8 21 8 -11 15
-27 15 -35z m-310 -62 c0 -6 -4 -7 -10 -4 -5 3 -10 11 -10 16 0 6 5 7 10 4 6
-3 10 -11 10 -16z m190 -19 c0 -13 -1 -13 -10 0 -5 8 -10 22 -10 30 0 13 1 13
10 0 5 -8 10 -22 10 -30z m-3436 18 c-3 -5 -11 -7 -18 -5 -6 3 -19 -13 -28
-34 -18 -41 -7 -54 13 -16 13 23 38 46 52 47 5 0 -5 -19 -21 -42 -16 -24 -41
-64 -56 -90 -14 -26 -31 -50 -37 -53 -16 -10 -23 3 -11 18 6 7 7 18 3 26 -11
17 -3 42 31 107 22 41 32 52 52 52 14 0 23 -5 20 -10z m50 -45 c-4 -14 -17
-45 -30 -67 -29 -50 -30 -65 -4 -41 24 21 24 18 6 -25 -11 -28 -14 -30 -21
-14 -7 17 -8 16 -14 -6 -4 -14 -15 -26 -24 -28 -39 -8 -6 86 61 176 30 39 34
40 26 5z m289 7 c-3 -11 -10 -23 -16 -27 -7 -4 -8 0 -4 11 4 10 7 22 7 27 0 5
4 9 9 9 5 0 7 -9 4 -20z m-40 -70 c-3 -12 -8 -19 -11 -16 -5 6 5 36 12 36 2 0
2 -9 -1 -20z m3502 -304 c28 -62 31 -73 12 -57 -8 6 -16 8 -19 5 -5 -4 -28 81
-28 101 0 17 14 -3 35 -49z m-575 -36 c0 -16 -2 -30 -4 -30 -2 0 -6 14 -8 30
-3 17 -1 30 4 30 4 0 8 -13 8 -30z m497 -42 c-3 -8 -6 -5 -6 6 -1 11 2 17 5
13 3 -3 4 -12 1 -19z m13 -28 c0 -5 -2 -10 -4 -10 -3 0 -8 5 -11 10 -3 6 -1
10 4 10 6 0 11 -4 11 -10z m-497 -125 l5 -110 -14 75 c-8 41 -11 92 -8 113 3
21 7 37 9 35 1 -2 5 -52 8 -113z m-208 34 c0 -7 -9 -15 -20 -18 -20 -3 -35
-18 -35 -34 0 -5 6 -5 13 -2 6 4 3 -1 -7 -9 -11 -9 -17 -19 -13 -23 9 -8 47
26 44 41 -1 7 16 11 46 11 42 1 46 -1 41 -18 -9 -27 -12 -48 -13 -74 -1 -13
-5 -23 -11 -23 -5 0 -7 7 -4 15 12 29 -49 17 -95 -20 -33 -27 -53 -35 -83 -35
-28 0 -38 4 -35 13 2 6 -2 20 -11 30 -14 16 -13 17 18 17 21 0 43 9 58 23 24
21 24 22 14 1 -12 -24 -32 -34 -65 -34 -20 -1 -20 -2 -5 -11 34 -19 89 31 95
85 l3 34 -50 -18 c-27 -10 -50 -17 -50 -14 0 2 -11 -1 -25 -6 -18 -7 -25 -6
-25 3 0 6 -5 4 -11 -6 -10 -18 -12 -18 -31 3 -19 20 -19 23 -4 38 15 15 18 15
26 2 7 -10 10 -11 10 -2 0 17 18 15 22 -3 2 -12 9 -11 38 7 40 24 80 32 80 15
0 -6 6 -4 13 5 21 28 72 33 72 7z m-303 -64 c9 4 18 0 21 -10 8 -19 -45 -44
-84 -39 -16 2 -29 -4 -37 -17 -11 -17 -9 -19 18 -19 17 0 51 -5 76 -11 38 -10
47 -9 63 5 25 23 32 20 25 -9 -4 -15 -2 -25 5 -25 18 0 13 -14 -11 -29 -13 -8
-47 -13 -86 -12 -69 1 -94 -10 -85 -37 3 -9 -15 3 -40 27 l-46 44 27 20 c15
12 29 22 31 24 2 2 5 12 6 22 1 11 7 27 15 35 18 23 6 31 -14 10 -9 -9 -19
-14 -22 -11 -9 8 27 37 46 37 13 0 17 -5 14 -15 -4 -8 -1 -15 5 -15 6 0 11 7
11 16 0 8 4 13 9 9 5 -3 13 0 17 6 5 8 8 8 14 0 3 -7 14 -9 22 -6z m-3162
-109 c0 -3 -4 -8 -10 -11 -5 -3 -10 -1 -10 4 0 6 5 11 10 11 6 0 10 -2 10 -4z
m3470 -36 c-1 -11 -4 -10 -15 4 -15 19 -15 19 -15 -5 -1 -22 -2 -23 -14 -6
-18 23 -29 22 -16 -3 9 -16 8 -20 -5 -20 -9 0 -15 9 -15 23 0 17 8 25 33 32
34 11 47 3 47 -25z m40 20 c0 -11 -6 -20 -14 -20 -7 0 -16 9 -19 20 -4 15 0
20 14 20 12 0 19 -7 19 -20z m170 -75 c0 -68 -2 -75 -20 -75 -18 0 -20 7 -20
72 0 86 7 87 12 0 4 -85 18 -79 18 8 0 39 2 70 5 70 3 0 5 -34 5 -75z m-3670
45 c0 -5 -7 -10 -16 -10 -8 0 -12 5 -9 10 3 6 10 10 16 10 5 0 9 -4 9 -10z
m3335 1 c-3 -5 -1 -12 5 -16 5 -3 10 2 10 12 0 15 2 16 10 3 15 -22 12 -27
-12 -26 -23 1 -40 36 -18 36 6 0 9 -4 5 -9z m-35 -32 c0 -24 -23 -21 -28 4 -2
10 3 17 12 17 10 0 16 -9 16 -21z m-41 -11 c-1 -17 -2 -19 -6 -5 -2 9 -8 17
-13 17 -5 0 -7 -7 -4 -15 4 -8 2 -15 -4 -15 -6 0 -13 6 -15 13 -3 6 -6 3 -7
-8 l-1 -20 -8 20 c-6 14 -4 22 8 27 33 14 51 9 50 -14z m-88 -39 c-15 -6 -41
6 -41 20 0 3 10 11 23 16 18 8 23 7 28 -10 3 -13 0 -22 -10 -26z m-45 -6 c-3
-4 -6 -1 -6 5 0 7 -4 12 -10 12 -5 0 -7 -7 -3 -16 4 -12 2 -15 -8 -12 -21 7
-23 36 -2 40 18 4 40 -18 29 -29z m-963 -54 c5 -18 11 -21 37 -16 37 8 49 -11
31 -49 -11 -26 -4 -107 9 -99 3 2 7 -2 7 -10 0 -7 -11 -19 -24 -26 -25 -13
-29 -24 -13 -34 6 -3 10 0 10 8 0 8 14 18 31 23 27 8 35 19 64 91 45 111 53
118 134 118 65 0 66 0 63 -26 -1 -17 3 -29 14 -33 12 -5 15 0 12 19 -4 31 12
37 23 8 6 -15 5 -23 -3 -23 -7 0 -5 -7 4 -17 8 -10 18 -37 22 -61 l6 -43 -44
6 c-53 8 -71 -9 -36 -35 19 -15 21 -19 8 -26 -8 -5 -33 -47 -55 -94 -23 -47
-55 -101 -73 -120 -33 -34 -69 -102 -70 -128 0 -8 -9 -21 -20 -30 -13 -11 -22
-32 -25 -58 -2 -23 -13 -61 -25 -84 -12 -23 -20 -50 -17 -60 2 -10 1 -24 -4
-31 -12 -19 -19 -8 -71 116 -23 55 -48 110 -56 122 -16 25 -1 66 21 57 20 -7
50 32 51 68 1 18 13 54 26 80 19 38 22 53 14 75 -11 31 -28 33 -32 3 -4 -23
-22 -28 -22 -5 0 7 -7 18 -15 23 -19 10 -28 54 -14 63 6 3 0 9 -14 13 -20 5
-26 16 -36 58 -7 29 -14 63 -18 75 -4 16 0 25 13 29 27 10 64 45 64 61 0 21
17 15 23 -8z m1507 -44 c0 -23 -5 -35 -14 -35 -19 0 -31 51 -14 61 23 15 28
10 28 -26z m-33 -77 c-3 -8 -6 -5 -6 6 -1 11 2 17 5 13 3 -3 4 -12 1 -19z
m953 -19 c0 -6 -7 -17 -15 -25 -13 -14 -15 -13 -15 9 0 13 3 27 6 30 9 8 24
-1 24 -14z m42 -91 c-6 -26 -22 -22 -23 5 0 13 -6 3 -13 -23 -20 -72 -20 -72
-35 -49 -11 19 -11 21 4 16 13 -6 15 -3 10 13 -8 26 4 82 16 74 5 -3 9 0 9 5
0 6 8 3 18 -6 10 -10 16 -26 14 -35z m-1002 -84 c0 -21 -4 -33 -10 -29 -17 10
-11 65 7 65 2 0 3 -16 3 -36z m-2904 -91 c-9 -142 -32 -284 -54 -338 -11 -27
-22 -81 -26 -120 -3 -38 -10 -97 -16 -130 -5 -33 -12 -107 -15 -165 -3 -58
-11 -132 -17 -165 -5 -33 -12 -89 -13 -125 -2 -36 -8 -99 -14 -140 -5 -41 -14
-113 -21 -160 -6 -47 -15 -115 -20 -153 -6 -37 -10 -79 -10 -93 0 -22 -3 -24
-22 -18 -13 5 -33 8 -45 9 -19 0 -18 3 13 29 30 24 38 44 16 40 -16 -3 -36 43
-39 90 -3 40 -9 55 -29 69 -13 11 -29 29 -35 40 -9 18 -9 20 2 10 19 -18 29
-16 29 6 0 21 -29 82 -45 93 -5 5 5 5 23 2 25 -5 32 -3 32 10 0 8 -11 18 -25
22 -14 3 -23 9 -20 13 2 4 5 27 6 52 2 24 9 49 16 54 8 7 9 15 4 24 -8 12 -16
13 -44 4 -25 -8 -38 -8 -46 0 -16 16 -14 24 15 50 29 27 31 82 4 82 -17 0 -15
51 3 73 8 10 7 16 -4 23 -13 8 -11 10 20 13 20 2 26 26 7 26 -9 0 -16 5 -16
10 0 6 7 10 15 10 8 0 15 6 15 13 0 7 9 20 21 30 28 24 24 104 -5 99 -26 -5
-66 6 -66 18 0 6 7 10 16 10 24 0 40 22 37 53 -1 18 3 27 13 27 8 0 14 9 14
20 0 11 -4 20 -9 20 -5 0 -5 16 0 38 14 61 11 82 -13 92 -20 7 -17 9 16 9 34
1 47 8 86 49 38 40 100 142 100 166 0 3 -9 6 -20 6 -28 0 -25 14 5 28 14 6 25
16 25 22 0 5 5 10 12 10 14 0 68 50 68 63 0 12 43 66 54 66 5 1 6 -38 2 -86z
m2724 72 c0 -8 -2 -15 -4 -15 -2 0 -6 7 -10 15 -3 8 -1 15 4 15 6 0 10 -7 10
-15z m20 -66 c0 -11 4 -19 9 -19 9 0 23 -41 17 -48 -5 -4 -56 88 -56 100 0 6
7 5 15 -2 8 -7 15 -21 15 -31z m-888 -93 c15 -16 30 -38 34 -48 3 -11 15 -18
29 -18 21 0 25 -6 31 -45 4 -31 2 -50 -6 -60 -11 -13 -9 -20 8 -38 14 -15 25
-44 30 -84 8 -54 6 -63 -14 -89 -13 -15 -21 -31 -18 -36 3 -4 1 -8 -5 -8 -15
0 -51 74 -51 105 0 24 -3 26 -31 20 -27 -6 -31 -4 -42 24 -6 17 -15 31 -18 31
-14 0 -72 -134 -60 -138 14 -5 15 -39 1 -47 -5 -3 -27 -43 -48 -89 -22 -46
-56 -111 -76 -145 -35 -60 -43 -90 -29 -105 4 -4 15 3 24 15 15 20 24 22 105
20 140 -2 203 -9 227 -26 29 -20 35 -19 39 8 2 17 9 21 28 19 14 -1 33 -4 43
-5 10 -1 20 -12 23 -27 3 -14 10 -42 16 -64 5 -21 7 -40 5 -42 -7 -7 -165 -32
-242 -38 -99 -9 -225 -28 -225 -36 0 -3 -30 -6 -67 -7 -38 0 -77 -2 -88 -3
-25 -3 -137 19 -150 29 -19 15 -108 32 -193 36 -112 7 -142 13 -142 31 0 16
29 65 44 76 5 3 11 14 12 24 2 9 8 21 16 25 7 4 9 11 5 15 -4 4 -3 12 2 18 4
6 11 26 15 45 5 26 68 142 92 170 2 2 12 -3 22 -12 10 -10 22 -17 26 -17 4 0
22 -11 39 -24 42 -32 87 -50 87 -34 0 6 3 9 6 6 8 -8 -23 -78 -35 -78 -11 0
-56 -89 -48 -96 10 -10 48 21 54 44 l5 23 12 -22 c6 -12 16 -24 23 -26 16 -6
83 64 83 87 0 11 16 49 35 84 21 39 30 66 23 68 -19 7 2 46 55 101 57 59 117
159 98 165 -17 6 -14 23 13 78 14 27 34 70 45 97 11 26 32 59 46 73 29 29 35
27 87 -30z m1034 28 c-5 -17 -3 -23 4 -19 5 3 10 12 10 20 0 28 19 24 51 -9
18 -19 45 -40 60 -47 22 -8 30 -20 35 -48 14 -87 33 -119 87 -145 29 -15 40
-87 21 -133 -7 -19 -10 -48 -7 -68 4 -28 2 -39 -13 -49 -21 -16 -28 -103 -13
-160 37 -147 40 -168 40 -291 0 -101 4 -147 20 -205 12 -41 25 -79 30 -85 5
-5 9 -19 9 -31 0 -12 9 -43 19 -67 11 -25 17 -55 14 -67 -5 -17 -2 -21 13 -18
12 2 19 -3 19 -12 0 -9 -11 -16 -27 -18 -18 -2 -28 1 -28 10 0 7 -7 2 -16 -11
-9 -13 -13 -26 -8 -30 12 -8 33 -68 27 -75 -11 -11 -32 8 -38 35 -7 33 -20 37
-33 12 -13 -24 -21 -133 -10 -133 15 0 8 -28 -9 -34 -17 -7 -32 9 -33 34 0 11
-3 11 -11 -3 -6 -11 -8 -34 -4 -54 6 -35 68 -157 92 -181 16 -17 16 -24 1 -43
-15 -18 -80 -59 -121 -77 -22 -9 -27 -17 -22 -32 5 -14 2 -20 -10 -20 -14 0
-15 9 -10 63 5 45 4 58 -4 47 -10 -13 -11 -13 -12 0 -1 8 0 27 1 43 1 19 -3
27 -14 27 -20 0 -20 10 -3 35 11 15 12 23 1 44 -20 43 -25 69 -14 76 5 3 10
18 10 33 0 19 -3 23 -9 14 -6 -9 -10 -3 -14 20 -3 18 -11 47 -18 63 -18 45
-24 77 -31 187 -2 21 -6 38 -10 38 -5 0 -8 8 -8 18 0 10 -4 22 -10 28 -6 6 -6
22 0 44 12 43 13 53 1 46 -15 -9 -18 48 -4 80 l12 29 1 -45 c1 -32 4 -39 9
-26 13 33 19 5 20 -84 1 -98 10 -172 21 -165 4 2 5 -8 3 -23 -3 -22 -2 -23 5
-8 6 15 12 -1 21 -60 7 -43 19 -101 27 -127 7 -26 11 -54 7 -62 -3 -8 0 -15 5
-15 6 0 14 -21 18 -47 l7 -48 15 65 c11 51 12 71 3 96 -7 18 -16 72 -21 121
-13 121 -19 153 -30 153 -5 0 -11 -8 -13 -17 -3 -10 -2 4 1 31 4 36 2 47 -6
42 -8 -5 -10 -2 -6 8 3 9 2 16 -4 16 -5 0 -12 20 -14 45 -2 25 0 45 4 45 13 0
9 63 -12 240 -11 91 -21 244 -22 342 -2 97 -5 176 -8 176 -22 -1 -30 5 -30 23
0 12 -10 30 -21 40 -17 14 -20 24 -14 46 7 28 7 28 18 6 13 -29 51 -32 42 -3
-3 10 -1 28 5 40 8 15 7 30 -3 60 -7 22 -16 38 -20 34 -3 -3 -3 -12 0 -20 3
-8 2 -14 -2 -14 -10 0 -35 27 -35 38 0 6 -12 15 -27 20 -16 6 -22 11 -14 11 8
1 20 9 27 19 8 10 13 12 14 5 0 -23 15 -14 16 10 1 12 5 45 8 72 4 28 4 46 -1
40 -12 -15 -33 -17 -28 -2 2 6 6 24 9 40 4 15 9 27 12 27 4 0 3 -12 0 -26z
m-69 -81 c25 -64 23 -86 -3 -27 -9 22 -20 47 -25 56 -11 22 -11 28 -1 28 4 0
17 -26 29 -57z m-50 -180 c-3 -10 -5 -4 -5 12 0 17 2 24 5 18 2 -7 2 -21 0
-30z m88 -52 c-13 -14 -15 -13 -15 6 0 12 3 29 7 39 6 15 7 14 15 -6 6 -17 4
-28 -7 -39z m-3823 15 c-2 -10 5 -24 15 -32 17 -14 17 -14 -3 -5 -29 14 -47
38 -39 51 10 17 30 5 27 -14z m3735 -18 c-3 -7 -5 -2 -5 12 0 14 2 19 5 13 2
-7 2 -19 0 -25z m-2532 -27 c3 -5 1 -12 -5 -16 -5 -3 -10 1 -10 9 0 18 6 21
15 7z m2955 -62 c0 -11 -4 -17 -10 -14 -5 3 -10 1 -10 -4 0 -6 -4 -11 -9 -11
-5 0 -4 11 2 25 14 30 27 32 27 4z m10 -39 c0 -5 -2 -10 -4 -10 -3 0 -8 5 -11
10 -3 6 -1 10 4 10 6 0 11 -4 11 -10z m-1179 -92 c22 -86 21 -81 10 -74 -13 9
-53 135 -46 147 10 16 15 7 36 -73z m770 68 c6 -8 16 -10 68 -15 7 0 11 -7 7
-16 -3 -8 -1 -15 4 -15 6 0 10 5 10 11 0 5 5 7 10 4 6 -3 10 -1 10 4 0 6 7 11
16 11 12 0 14 -7 9 -32 -3 -18 -11 -43 -17 -55 -13 -27 -38 -38 -38 -18 0 8
-6 15 -13 15 -8 0 -24 11 -37 25 -14 14 -44 38 -67 53 -24 15 -43 29 -43 32 0
9 75 5 81 -4z m-3209 -58 c-5 -22 -4 -22 -24 1 -15 18 -14 19 6 17 17 -1 22
-6 18 -18z m3334 -188 c3 -56 1 -107 -4 -114 -5 -6 -12 -40 -16 -76 -9 -92
-12 -105 -21 -105 -8 0 -13 37 -17 138 -2 37 -6 67 -10 67 -5 0 -9 12 -9 28
-2 23 -2 24 -6 5 -2 -13 -9 -23 -14 -23 -5 0 -9 -9 -9 -20 0 -11 5 -20 10 -20
6 0 10 -9 10 -20 0 -11 5 -20 10 -20 6 0 10 -21 10 -47 0 -35 -3 -44 -10 -33
-5 8 -10 25 -10 36 0 13 -8 24 -19 27 -19 5 -36 57 -18 57 5 0 7 13 3 30 -4
22 -1 32 9 36 8 4 13 9 11 13 -2 3 2 15 10 26 12 17 16 18 24 5 6 -10 9 -5 8
18 -1 18 2 35 5 39 4 3 7 -8 7 -25 0 -34 14 -43 24 -16 4 9 1 23 -5 30 -9 11
-8 22 1 44 7 17 15 29 17 26 3 -2 7 -50 9 -106z m-856 16 c0 -20 0 -20 -15 0
-8 10 -14 28 -14 39 0 20 0 20 14 1 8 -11 15 -29 15 -40z m-1590 -42 c0 -3 -7
-1 -15 6 -8 7 -15 17 -15 22 0 5 7 3 15 -6 8 -8 15 -18 15 -22z m-180 -84 c0
-5 -2 -10 -4 -10 -3 0 -8 5 -11 10 -3 6 -1 10 4 10 6 0 11 -4 11 -10z m3600
-199 c0 -6 -4 -13 -10 -16 -5 -3 -10 1 -10 9 0 9 5 16 10 16 6 0 10 -4 10 -9z
m-1836 -153 c-3 -4 -9 -8 -15 -8 -11 0 -12 53 -2 64 9 9 25 -43 17 -56z m-94
-8 c5 0 10 -15 12 -34 l3 -35 43 30 c23 16 45 29 47 29 3 0 5 -20 5 -44 0 -38
3 -43 18 -39 10 2 24 -2 31 -11 10 -12 3 -24 -45 -70 -31 -31 -61 -56 -66 -56
-5 0 -34 -11 -64 -25 -48 -22 -54 -28 -54 -55 0 -40 -17 -38 -25 3 -4 17 -13
61 -22 96 -9 39 -12 66 -6 70 5 3 9 27 8 53 -2 39 2 51 24 70 14 13 35 24 46
24 10 1 21 8 24 15 4 10 6 9 9 -3 2 -10 7 -18 12 -18z m987 -22 c-3 -7 -5 -2
-5 12 0 14 2 19 5 13 2 -7 2 -19 0 -25z m-3692 -58 c-3 -5 -10 -10 -16 -10 -5
0 -9 5 -9 10 0 6 7 10 16 10 8 0 12 -4 9 -10z m2919 -23 c4 -19 3 -26 -4 -22
-5 3 -10 18 -10 32 0 32 5 28 14 -10z m-2040 -12 c3 -8 1 -15 -4 -15 -6 0 -10
7 -10 15 0 8 2 15 4 15 2 0 6 -7 10 -15z m2823 -47 c-3 -8 -6 -5 -6 6 -1 11 2
17 5 13 3 -3 4 -12 1 -19z m-3730 -64 c-3 -3 -12 -4 -19 -1 -8 3 -5 6 6 6 11
1 17 -2 13 -5z m2800 -31 c-9 -9 -19 -14 -23 -11 -10 10 6 28 24 28 15 0 15
-1 -1 -17z m-2767 -52 c0 -12 -20 -25 -27 -18 -7 7 6 27 18 27 5 0 9 -4 9 -9z
m2780 -71 c0 -5 -4 -10 -10 -10 -5 0 -10 5 -10 10 0 6 5 10 10 10 6 0 10 -4
10 -10z m-2070 -102 c0 -14 -19 -18 -42 -9 -17 7 -18 10 -5 10 18 1 23 26 7
36 -5 3 -10 11 -10 17 0 6 11 -2 25 -18 14 -16 25 -32 25 -36z m24 -34 c3 -8
2 -12 -4 -9 -6 3 -10 10 -10 16 0 14 7 11 14 -7z m-14 -34 c0 -5 -4 -10 -10
-10 -5 0 -10 5 -10 10 0 6 5 10 10 10 6 0 10 -4 10 -10z m80 -56 c0 -3 -7 -1
-15 6 -8 7 -15 17 -15 22 0 5 7 3 15 -6 8 -8 15 -18 15 -22z m2880 -22 c0 -7
-4 -10 -10 -7 -5 3 -10 16 -10 28 0 18 2 19 10 7 5 -8 10 -21 10 -28z m-2850
-2 c0 -5 -2 -10 -4 -10 -2 0 -12 -3 -22 -7 -16 -6 -17 -5 -4 10 17 19 30 22
30 7z m39 -61 c-7 -4 -17 -5 -22 -2 -5 3 -3 9 4 14 7 4 17 5 22 2 5 -3 3 -9
-4 -14z m-332 -81 c-3 -8 -6 -5 -6 6 -1 11 2 17 5 13 3 -3 4 -12 1 -19z m434
-11 c-10 -9 -11 -8 -5 6 3 10 9 15 12 12 3 -3 0 -11 -7 -18z m-444 -104 c-3
-10 -5 -4 -5 12 0 17 2 24 5 18 2 -7 2 -21 0 -30z m3263 -12 c0 -6 -4 -13 -10
-16 -5 -3 -10 1 -10 9 0 9 5 16 10 16 6 0 10 -4 10 -9z m-3152 -51 c7 -11 9
-20 4 -20 -10 0 -32 22 -32 32 0 15 15 8 28 -12z m3139 -40 c8 -21 3 -123 -7
-157 -5 -18 -6 0 -3 49 4 54 2 82 -6 92 -8 9 -10 24 -5 38 5 16 8 19 11 8 3
-8 7 -22 10 -30z m-3097 -29 c0 -11 -29 -35 -35 -29 -10 9 7 38 21 38 8 0 14
-4 14 -9z m3208 -101 c-16 -37 -28 -39 -28 -5 0 14 4 25 9 25 5 0 12 10 16 23
6 19 8 19 12 4 2 -9 -1 -31 -9 -47z m-3178 30 c0 -5 -5 -10 -11 -10 -5 0 -7 5
-4 10 3 6 8 10 11 10 2 0 4 -4 4 -10z m11 -93 c-13 -13 -26 -3 -16 12 3 6 11
8 17 5 6 -4 6 -10 -1 -17z m96 -2 c-15 -16 -22 -11 -13 10 3 9 10 13 16 10 6
-4 5 -11 -3 -20z m293 -85 c0 -5 -5 -10 -11 -10 -5 0 -7 5 -4 10 3 6 8 10 11
10 2 0 4 -4 4 -10z m-271 -66 c-14 -18 -24 -11 -15 11 3 9 11 13 16 10 8 -5 7
-11 -1 -21z m2731 -46 c0 -4 -9 -8 -20 -8 -11 0 -20 2 -20 4 0 2 -3 12 -6 21
-6 14 -3 14 20 4 14 -7 26 -16 26 -21z m-2957 -45 c4 -3 46 -7 94 -9 50 -2 89
-7 91 -14 2 -5 8 -8 13 -4 5 3 9 0 9 -6 0 -6 -7 -13 -15 -16 -10 -4 -13 -13
-10 -24 3 -10 0 -20 -9 -23 -10 -4 -13 -1 -9 9 6 16 -10 18 -38 4 -16 -9 -19
-7 -19 10 0 27 -14 25 -34 -5 -9 -14 -20 -25 -24 -25 -4 0 -24 25 -45 55 -25
35 -33 55 -24 55 7 0 17 -3 20 -7z m357 -23 c0 -5 -4 -10 -10 -10 -5 0 -10 5
-10 10 0 6 5 10 10 10 6 0 10 -4 10 -10z m50 -25 c-7 -9 -15 -13 -17 -11 -7 7
7 26 19 26 6 0 6 -6 -2 -15z m-190 -57 l-22 -23 7 25 c4 14 13 31 19 39 9 12
11 12 14 -2 2 -9 -6 -27 -18 -39z m1437 -160 c-2 -13 -4 -3 -4 22 0 25 2 35 4
23 2 -13 2 -33 0 -45z m-10 -105 c-2 -16 -4 -3 -4 27 0 30 2 43 4 28 2 -16 2
-40 0 -55z m-1417 -68 c0 -8 -4 -15 -10 -15 -5 0 -10 7 -10 15 0 8 5 15 10 15
6 0 10 -7 10 -15z m-35 -35 c-5 -15 -10 -19 -17 -12 -7 7 -6 15 3 25 18 19 23
14 14 -13z m2534 -13 c18 -34 29 -185 16 -204 -18 -25 -39 -10 -40 28 -3 98
-8 152 -12 137 -7 -28 -21 -21 -15 7 5 28 -14 35 -21 8 -3 -12 -5 -9 -6 8 -1
32 0 34 37 36 21 1 32 -4 41 -20z m-1999 -7 c0 -5 -2 -10 -4 -10 -3 0 -8 5
-11 10 -3 6 -1 10 4 10 6 0 11 -4 11 -10z m95 -21 c16 -16 -30 -10 -51 7 -18
15 -18 15 11 9 17 -4 34 -11 40 -16z m-115 -15 c0 -14 -3 -14 -15 -4 -8 7 -15
14 -15 16 0 2 7 4 15 4 8 0 15 -7 15 -16z m165 -34 c3 -5 -1 -10 -9 -10 -9 0
-16 5 -16 10 0 6 4 10 9 10 6 0 13 -4 16 -10z m1915 -137 c-14 -3 -28 -10 -32
-16 -4 -6 -10 -8 -13 -5 -14 13 7 28 38 27 28 -2 29 -2 7 -6z m-80 -37 c0 -24
20 -30 34 -10 15 20 32 3 22 -21 -3 -8 0 -15 7 -16 9 0 9 -2 0 -6 -7 -2 -13
-11 -13 -19 0 -8 -6 -11 -15 -8 -12 5 -13 10 -4 20 16 20 1 18 -82 -7 -39 -12
-73 -19 -76 -15 -9 9 3 18 29 21 33 4 78 24 56 24 -19 1 -26 21 -8 21 6 0 10
7 10 15 0 8 9 15 20 15 11 0 20 -6 20 -14z m100 -23 c-1 -24 -2 -26 -11 -10
-5 9 -7 22 -4 27 10 17 15 11 15 -17z m-1785 -63 c-27 -12 -35 -12 -35 0 0 6
12 10 28 9 24 0 25 -1 7 -9z m1277 -27 c-6 -2 -10 -9 -6 -14 3 -5 0 -9 -5 -9
-6 0 -11 7 -11 15 0 8 8 15 18 14 10 0 12 -3 4 -6z m-1292 -23 c0 -13 -5 -18
-15 -14 -12 5 -13 10 -4 20 15 19 19 18 19 -6z m10 -40 c0 -5 -4 -10 -10 -10
-5 0 -10 5 -10 10 0 6 5 10 10 10 6 0 10 -4 10 -10z m35 -190 c3 -5 -1 -10
-10 -10 -9 0 -13 5 -10 10 3 6 8 10 10 10 2 0 7 -4 10 -10z m1125 -50 c0 -5
-4 -10 -10 -10 -5 0 -10 5 -10 10 0 6 5 10 10 10 6 0 10 -4 10 -10z m-1070
-95 c0 -8 -4 -15 -10 -15 -5 0 -10 7 -10 15 0 8 5 15 10 15 6 0 10 -7 10 -15z
m-23 -407 c-3 -8 -6 -5 -6 6 -1 11 2 17 5 13 3 -3 4 -12 1 -19z m-172 -68 c4
-6 -5 -10 -20 -10 -15 0 -24 4 -20 10 3 6 12 10 20 10 8 0 17 -4 20 -10z m89
-58 c6 -19 0 -61 -10 -71 -4 -3 -4 2 -1 12 4 9 2 17 -5 17 -7 0 -6 5 2 15 11
13 10 18 -6 30 -17 13 -17 14 -2 15 9 0 19 -8 22 -18z"/>
<path d="M3540 6109 c0 -5 5 -7 10 -4 6 3 10 8 10 11 0 2 -4 4 -10 4 -5 0 -10
-5 -10 -11z"/>
<path d="M3390 6000 c-9 -6 -10 -10 -3 -10 6 0 15 5 18 10 8 12 4 12 -15 0z"/>
<path d="M6355 5370 c3 -5 11 -10 16 -10 6 0 7 5 4 10 -3 6 -11 10 -16 10 -6
0 -7 -4 -4 -10z"/>
<path d="M6342 5328 c6 -18 28 -21 28 -4 0 9 -7 16 -16 16 -9 0 -14 -5 -12
-12z"/>
<path d="M6269 5293 c-24 -22 -51 -43 -59 -46 -11 -4 -11 -6 4 -6 10 -1 37 13
60 31 22 17 43 33 45 34 1 2 1 8 -1 15 -3 8 -21 -2 -49 -28z"/>
<path d="M5905 5246 c-20 -15 -20 -15 1 -36 12 -13 27 -18 37 -14 21 8 21 13
-1 42 -16 20 -19 21 -37 8z"/>
<path d="M6067 5242 c-15 -7 -16 -10 -4 -26 18 -25 47 -15 40 13 -6 22 -8 23
-36 13z"/>
<path d="M6500 3850 c0 -5 5 -10 10 -10 6 0 10 5 10 10 0 6 -4 10 -10 10 -5 0
-10 -4 -10 -10z"/>
<path d="M6411 3744 c0 -11 3 -14 6 -6 3 7 2 16 -1 19 -3 4 -6 -2 -5 -13z"/>
<path d="M3512 1948 c-14 -14 -16 -28 -3 -28 9 0 24 30 18 36 -2 2 -9 -2 -15
-8z"/>
<path d="M6191 1454 c0 -11 3 -14 6 -6 3 7 2 16 -1 19 -3 4 -6 -2 -5 -13z"/>
<path d="M4070 6400 c-13 -9 -13 -10 0 -10 8 0 22 5 30 10 13 9 13 10 0 10 -8
0 -22 -5 -30 -10z"/>
<path d="M4225 6360 c-3 -5 -1 -10 4 -10 6 0 11 5 11 10 0 6 -2 10 -4 10 -3 0
-8 -4 -11 -10z"/>
<path d="M6575 6310 c24 -26 135 -104 141 -98 9 9 -63 71 -111 95 -49 25 -50
25 -30 3z"/>
<path d="M2850 5434 c0 -6 -9 -20 -21 -33 -30 -32 -16 -38 18 -7 21 20 25 28
15 38 -7 7 -12 8 -12 2z"/>
<path d="M7260 5420 c0 -5 5 -10 11 -10 5 0 7 5 4 10 -3 6 -8 10 -11 10 -2 0
-4 -4 -4 -10z"/>
<path d="M7221 5404 c0 -11 3 -14 6 -6 3 7 2 16 -1 19 -3 4 -6 -2 -5 -13z"/>
<path d="M7248 5341 c3 -20 8 -28 18 -24 8 3 15 -1 16 -8 5 -47 8 -69 16 -109
9 -44 10 -44 11 27 1 49 -3 76 -13 85 -8 8 -16 23 -18 34 -2 10 -10 20 -19 22
-12 2 -15 -4 -11 -27z"/>
<path d="M7351 5094 c0 -11 3 -14 6 -6 3 7 2 16 -1 19 -3 4 -6 -2 -5 -13z"/>
<path d="M7512 3498 c-17 -17 -15 -38 3 -38 9 0 15 9 15 25 0 29 -1 30 -18 13z"/>
<path d="M1756 2802 c-3 -3 -6 -12 -6 -19 0 -23 -61 -157 -75 -165 -7 -4 -12
-18 -11 -30 1 -13 -3 -26 -8 -30 -6 -4 -2 -32 9 -73 12 -47 15 -69 7 -77 -6
-6 -8 -24 -5 -39 3 -18 1 -29 -6 -29 -6 0 -12 6 -13 13 -5 40 -7 69 -9 125 -2
42 -7 62 -15 62 -7 0 -16 -5 -19 -10 -4 -6 -17 -3 -35 10 -15 11 -31 20 -35
20 -4 0 -20 11 -37 25 -21 18 -25 25 -13 25 36 0 2 18 -45 23 -28 3 -57 13
-66 22 -40 40 -75 -8 -102 -141 -11 -54 -23 -106 -27 -115 -3 -9 1 -23 9 -32
8 -8 18 -26 22 -41 3 -14 10 -26 14 -26 14 0 19 27 14 81 -4 53 1 89 14 89 4
0 6 -39 6 -87 -1 -49 3 -99 8 -112 6 -17 5 -27 -3 -32 -9 -5 -10 -11 -2 -21 5
-7 13 -26 16 -43 3 -16 8 -37 12 -46 3 -9 -1 -24 -11 -33 -14 -15 -15 -21 -4
-41 8 -15 10 -37 6 -60 -4 -21 -3 -42 3 -49 12 -14 26 -204 22 -307 -1 -36 3
-88 9 -115 17 -77 37 -345 39 -519 1 -88 6 -187 13 -220 7 -38 11 -195 12
-422 l0 -363 248 0 248 0 0 24 c0 14 -5 28 -10 31 -6 3 -8 16 -6 28 1 12 1 16
-1 8 -4 -11 -6 -12 -13 -1 -7 11 -11 11 -24 1 -14 -12 -16 -2 -15 95 2 165 -4
226 -29 266 -12 19 -22 46 -22 60 0 13 -5 29 -12 36 -9 9 -9 12 0 12 9 0 10 5
3 18 -6 11 -6 24 1 36 10 17 6 60 -8 113 -5 18 -2 23 11 23 14 0 16 5 10 23
-13 37 -17 223 -7 271 8 39 7 47 -9 58 -11 8 -21 32 -25 63 -6 43 -5 48 8 38
13 -11 14 -5 6 50 -5 34 -13 77 -18 96 -6 24 -6 39 2 48 7 9 8 42 3 106 -4 50
-6 117 -6 149 2 44 -2 59 -16 70 -20 14 -28 54 -12 63 5 4 9 -1 9 -10 0 -9 4
-13 10 -10 11 7 12 223 1 230 -4 2 -8 130 -8 285 -1 231 2 286 14 311 8 17 12
33 9 36 -3 3 1 11 10 17 20 15 31 120 15 140 -13 16 -47 27 -55 18z m-178
-378 c-10 -10 -28 6 -28 24 0 15 1 15 17 -1 9 -9 14 -19 11 -23z m5 -136 c2
-7 0 -21 -5 -30 -5 -12 -5 -18 2 -18 5 0 10 -8 10 -17 0 -14 2 -15 9 -5 6 10
10 8 14 -10 13 -50 28 -223 25 -276 -2 -37 1 -56 10 -59 6 -3 12 2 12 10 0 8
7 20 15 27 19 16 19 9 0 -36 -13 -31 -13 -36 0 -41 20 -7 19 -31 -2 -29 -10 0
-19 -10 -24 -27 -7 -25 -5 -27 12 -22 19 6 20 3 17 -57 -2 -34 -7 -66 -13 -71
-6 -4 0 -10 13 -13 23 -7 30 -28 12 -39 -6 -4 -8 -11 -4 -16 5 -9 13 -168 13
-257 0 -17 6 -42 13 -55 7 -12 12 -26 13 -32 0 -5 4 -32 8 -60 8 -62 14 -143
23 -312 5 -101 3 -137 -6 -148 -9 -11 -12 -49 -11 -127 1 -61 3 -114 6 -117 2
-4 6 -45 10 -91 3 -47 8 -103 11 -125 2 -22 7 -68 10 -102 8 -73 1 -101 -21
-83 -8 6 -23 9 -35 5 -14 -4 -20 -2 -20 9 0 10 8 15 23 13 21 -2 22 2 25 63 2
40 -5 99 -17 150 -17 77 -19 81 -20 41 -1 -24 -4 -41 -8 -37 -12 12 -3 100 13
124 9 13 13 30 10 37 -6 17 -46 8 -46 -11 0 -8 -9 -14 -19 -14 -29 0 -34 17
-8 24 13 3 18 9 12 13 -5 5 -11 28 -12 53 -4 88 -15 141 -30 147 -8 3 -18 1
-22 -4 -3 -5 -23 -13 -43 -16 -35 -5 -38 -4 -38 18 0 13 -4 26 -9 29 -5 3 -12
18 -15 32 -5 20 -1 33 15 50 12 13 17 24 11 24 -8 0 -10 9 -6 24 3 14 2 31 -2
38 -12 19 -15 36 -18 108 -2 36 -6 72 -9 80 -7 18 -10 39 -8 63 1 14 6 17 21
12 11 -4 20 -2 20 4 0 6 7 11 16 11 9 0 14 6 11 13 -2 6 -10 11 -16 10 -6 -2
-11 2 -11 7 0 6 7 10 15 10 22 0 18 21 -5 27 -27 7 -22 37 7 41 11 2 23 13 26
24 5 18 8 19 21 8 13 -10 16 -10 16 4 0 9 -4 16 -9 16 -4 0 -6 11 -3 25 2 14
7 25 11 25 10 0 7 127 -4 128 -5 0 -20 4 -32 7 -17 5 -23 3 -23 -8 0 -16 -27
-43 -35 -35 -3 3 -2 32 1 64 4 32 9 53 12 46 2 -6 17 -12 33 -12 22 0 29 -5
29 -20 0 -21 14 -27 25 -11 3 5 -2 16 -10 24 -19 20 -19 36 0 43 20 8 12 74
-9 86 -9 5 -16 16 -16 23 0 8 -8 15 -19 15 -24 0 -45 25 -39 48 3 12 -2 23
-13 31 -11 6 -19 22 -19 36 0 13 -9 30 -21 39 l-21 14 23 31 c17 24 20 33 10
44 -15 19 -3 49 18 45 10 -2 15 -11 13 -26 -4 -31 11 -28 25 6 10 24 16 81 27
267 2 28 4 53 4 58 3 12 20 8 25 -5z m97 -253 c0 -8 -4 -15 -10 -15 -5 0 -10
7 -10 15 0 8 5 15 10 15 6 0 10 -7 10 -15z m-13 -87 c-3 -7 -5 -2 -5 12 0 14
2 19 5 13 2 -7 2 -19 0 -25z m-197 -123 c0 -8 -2 -15 -4 -15 -2 0 -6 7 -10 15
-3 8 -1 15 4 15 6 0 10 -7 10 -15z m240 -125 c0 -5 -4 -10 -10 -10 -5 0 -10 5
-10 10 0 6 5 10 10 10 6 0 10 -4 10 -10z m-197 -30 c-3 -11 -9 -20 -14 -20
-14 0 -11 28 4 33 6 3 13 6 14 6 0 1 -1 -8 -4 -19z m197 6 c0 -11 -19 -15 -25
-6 -3 5 1 10 9 10 9 0 16 -2 16 -4z m47 -98 c-3 -7 -5 -2 -5 12 0 14 2 19 5
13 2 -7 2 -19 0 -25z m12 -61 c0 -27 -2 -29 -9 -12 -12 28 -12 57 0 50 6 -3
10 -21 9 -38z m-2 -84 c-3 -10 -5 -4 -5 12 0 17 2 24 5 18 2 -7 2 -21 0 -30z
m-57 -1243 c0 -11 -7 -20 -15 -20 -15 0 -21 21 -8 33 12 13 23 7 23 -13z m197
-152 c-3 -8 -6 -5 -6 6 -1 11 2 17 5 13 3 -3 4 -12 1 -19z"/>
<path d="M1630 1402 c0 -21 13 -42 26 -42 10 0 11 6 5 22 -8 23 -31 37 -31 20z"/>
<path d="M1575 2610 c3 -5 10 -10 16 -10 5 0 9 5 9 10 0 6 -7 10 -16 10 -8 0
-12 -4 -9 -10z"/>
<path d="M1618 2614 c-9 -8 13 -54 24 -54 5 0 6 10 3 23 -9 27 -19 39 -27 31z"/>
<path d="M3207 2548 c3 -18 12 -45 20 -61 20 -40 53 -149 47 -158 -10 -16 15
-18 31 -3 11 12 15 26 11 43 -3 14 -11 53 -16 86 -15 87 -17 90 -55 108 -46
22 -46 22 -38 -15z"/>
<path d="M3105 2478 c4 -12 11 -25 15 -28 4 -3 10 -12 13 -20 3 -8 5 3 4 25
-1 30 -7 41 -20 43 -16 3 -18 0 -12 -20z"/>
<path d="M3150 2434 c0 -8 5 -12 10 -9 6 3 10 10 10 16 0 5 -4 9 -10 9 -5 0
-10 -7 -10 -16z"/>
<path d="M3464 1815 c-5 -19 1 -36 21 -65 28 -40 45 -47 30 -13 -5 10 -9 27
-11 38 -4 33 -16 65 -25 65 -5 0 -11 -11 -15 -25z"/>
<path d="M3676 1455 c-3 -8 -1 -15 4 -15 6 0 10 7 10 15 0 8 -2 15 -4 15 -2 0
-6 -7 -10 -15z"/>
<path d="M4320 1310 c0 -5 5 -10 10 -10 6 0 10 5 10 10 0 6 -4 10 -10 10 -5 0
-10 -4 -10 -10z"/>
<path d="M6180 1139 c0 -5 5 -7 10 -4 6 3 10 8 10 11 0 2 -4 4 -10 4 -5 0 -10
-5 -10 -11z"/>
<path d="M5841 1124 c0 -11 3 -14 6 -6 3 7 2 16 -1 19 -3 4 -6 -2 -5 -13z"/>
<path d="M6360 1124 c-8 -3 -37 -16 -65 -28 -27 -13 -75 -34 -105 -46 -30 -12
-62 -31 -71 -42 -12 -16 -24 -20 -50 -16 -19 3 -41 0 -51 -6 -12 -7 -26 -7
-51 2 -18 7 -44 12 -56 12 -20 0 -22 -4 -16 -27 3 -16 11 -29 16 -31 5 -2 9
-16 9 -32 0 -16 6 -31 13 -33 7 -4 6 -6 -5 -6 -12 -1 -38 -46 -38 -67 0 -13
34 -33 44 -26 6 5 28 9 49 9 20 0 40 3 44 6 3 4 19 7 34 7 23 0 26 -3 22 -21
-5 -18 -12 -20 -48 -17 -33 2 -41 0 -37 -11 4 -11 -1 -12 -21 -7 -15 3 -48 9
-73 12 -35 4 -45 2 -42 -8 3 -7 24 -15 49 -19 42 -5 107 -23 139 -39 8 -4 16
-16 18 -28 3 -18 0 -19 -30 -13 -38 9 -48 12 -66 19 -7 2 -18 0 -24 -6 -15
-15 4 -20 148 -40 52 -7 61 -6 60 8 -1 8 -8 20 -16 27 -12 9 -10 13 15 23 56
21 119 57 123 68 5 16 -13 15 -30 0 -15 -15 -77 -38 -102 -38 -32 0 -6 18 37
25 47 8 67 20 67 42 0 11 -4 13 -12 6 -7 -6 -26 -13 -42 -17 -23 -6 -27 -4
-23 8 4 9 2 16 -3 16 -6 0 -10 -4 -10 -10 0 -5 -7 -10 -15 -10 -8 0 -14 6 -12
13 1 7 27 14 72 17 64 5 70 7 68 26 -2 15 5 24 20 28 16 4 19 8 10 17 -8 8
-16 8 -32 -1 -12 -6 -34 -10 -49 -8 l-27 4 28 12 c28 12 29 32 1 32 -8 0 -12
-4 -9 -10 3 -5 -1 -10 -10 -10 -13 0 -14 4 -5 20 13 25 25 25 56 1 21 -16 30
-18 55 -9 17 6 27 14 22 19 -16 16 -97 25 -133 16 -19 -5 -50 -11 -67 -14 -36
-6 -45 -23 -12 -23 12 0 17 -4 13 -11 -3 -6 -18 -8 -33 -5 -19 5 -22 4 -11 -4
8 -5 30 -10 48 -10 17 0 32 -3 32 -7 0 -15 -192 -6 -201 9 -12 18 37 31 62 15
14 -9 21 -9 31 1 9 9 6 12 -15 12 -37 0 -37 30 1 31 56 2 98 9 132 22 45 17
97 14 135 -6 30 -15 31 -14 58 14 34 37 34 41 0 34 l-28 -5 30 14 c20 10 24
15 13 16 -22 0 -23 13 -3 30 28 23 17 33 -32 26 -26 -3 -52 -11 -57 -16 -6 -6
-17 -10 -25 -10 -19 1 47 39 67 40 8 0 25 9 39 20 24 19 17 25 -17 14z m-120
-89 c-18 -21 -3 -35 30 -28 19 3 30 1 30 -6 0 -6 -13 -11 -29 -11 -16 0 -37
-3 -46 -6 -12 -5 -16 -2 -13 12 3 20 1 20 -47 8 -17 -4 -27 -3 -22 2 7 7 41
21 106 43 2 0 -2 -6 -9 -14z m-65 -65 c-16 -17 -27 -19 -79 -15 -65 6 -87 15
-40 16 16 0 38 4 49 9 11 5 35 9 54 9 34 1 34 1 16 -19z m-65 -139 c0 -5 -17
-11 -37 -15 -21 -3 -55 -8 -75 -12 -26 -4 -38 -3 -38 6 0 6 8 9 18 6 9 -3 31
1 47 9 35 15 85 19 85 6z m146 -19 c-9 -9 -37 8 -31 18 5 8 11 7 21 -1 8 -6
12 -14 10 -17z m-153 -94 c-2 -5 -19 -7 -38 -5 -43 3 -35 16 9 14 19 -1 32 -5
29 -9z m20 -58 c3 -12 0 -20 -7 -20 -6 0 -17 9 -24 20 -11 17 -10 20 7 20 10
0 21 -9 24 -20z"/>
<path d="M6125 1109 c-11 -17 1 -21 15 -4 8 9 8 15 2 15 -6 0 -14 -5 -17 -11z"/>
<path d="M6080 1040 c0 -5 4 -10 9 -10 6 0 13 5 16 10 3 6 -1 10 -9 10 -9 0
-16 -4 -16 -10z"/>
<path d="M5670 919 c0 -5 5 -7 10 -4 6 3 10 8 10 11 0 2 -4 4 -10 4 -5 0 -10
-5 -10 -11z"/>
<path d="M5818 813 c7 -3 16 -2 19 1 4 3 -2 6 -13 5 -11 0 -14 -3 -6 -6z"/>
<path d="M4478 803 c7 -3 16 -2 19 1 4 3 -2 6 -13 5 -11 0 -14 -3 -6 -6z"/>
<path d="M5795 710 c3 -5 16 -10 28 -9 21 0 21 1 2 9 -28 12 -37 12 -30 0z"/>
<path d="M5730 677 c0 -13 58 -43 67 -34 8 9 -7 27 -23 27 -8 0 -14 5 -14 10
0 6 -7 10 -15 10 -8 0 -15 -6 -15 -13z"/>
<path d="M5898 661 c-6 -21 -9 -22 -23 -11 -12 10 -19 10 -27 2 -12 -12 -10
-13 53 -16 18 -1 25 3 27 19 1 15 -1 16 -7 6 -7 -11 -10 -10 -13 5 -3 16 -5
16 -10 -5z"/>
<path d="M4096 578 c14 -183 42 -317 64 -303 5 3 11 -3 14 -12 5 -12 10 -13
18 -5 8 8 8 15 1 24 -6 7 -13 49 -17 93 -9 117 -17 169 -27 180 -5 5 -9 21 -9
35 0 28 -16 50 -36 50 -9 0 -11 -17 -8 -62z"/>
<path d="M6178 633 c7 -3 16 -2 19 1 4 3 -2 6 -13 5 -11 0 -14 -3 -6 -6z"/>
<path d="M6094 588 c-3 -4 3 -11 13 -17 22 -11 75 -3 70 12 -3 11 -77 16 -83
5z"/>
<path d="M6065 560 c-16 -7 -17 -9 -3 -9 9 -1 20 4 23 9 7 11 7 11 -20 0z"/>
<path d="M6250 557 c-14 -7 -50 -20 -80 -30 -30 -11 -62 -21 -70 -24 -8 -4
-18 -5 -22 -5 -5 1 -8 -3 -8 -9 0 -7 12 -8 33 -4 34 8 129 45 137 55 3 3 16
11 30 17 14 6 21 12 15 12 -5 1 -21 -5 -35 -12z"/>
<path d="M6105 540 c-3 -5 -2 -10 4 -10 5 0 13 5 16 10 3 6 2 10 -4 10 -5 0
-13 -4 -16 -10z"/>
<path d="M6078 462 c-35 -7 -17 -22 26 -22 55 0 106 10 106 21 0 7 -93 8 -132
1z"/>
<path d="M6058 403 c7 -3 16 -2 19 1 4 3 -2 6 -13 5 -11 0 -14 -3 -6 -6z"/>
<path d="M6045 330 c3 -5 8 -10 11 -10 2 0 4 5 4 10 0 6 -5 10 -11 10 -5 0 -7
-4 -4 -10z"/>
<path d="M1945 150 c3 -5 10 -10 16 -10 5 0 9 5 9 10 0 6 -7 10 -16 10 -8 0
-12 -4 -9 -10z"/>
<path d="M1983 60 c-34 -14 -28 -23 9 -16 24 5 34 2 45 -14 8 -11 20 -20 26
-20 16 0 39 38 32 50 -8 12 -82 12 -112 0z"/>
<path d="M6000 46 c0 -9 -4 -16 -10 -16 -5 0 -10 -5 -10 -11 0 -5 5 -7 10 -4
6 3 10 1 10 -5 0 -6 5 -8 10 -5 6 3 10 15 10 25 0 10 -4 22 -10 25 -5 3 -10
-1 -10 -9z"/>
<path d="M4200 21 c0 -12 6 -21 16 -21 9 0 14 7 12 17 -5 25 -28 28 -28 4z"/>
<path d="M5920 26 c0 -9 5 -16 10 -16 6 0 10 4 10 9 0 6 -4 13 -10 16 -5 3
-10 -1 -10 -9z"/>
<path d="M6292 20 c0 -14 2 -19 5 -12 2 6 2 18 0 25 -3 6 -5 1 -5 -13z"/>
<path d="M5840 14 c0 -8 5 -12 10 -9 6 4 8 11 5 16 -9 14 -15 11 -15 -7z"/>
</g>
</svg>
